<mxfile host="app.diagrams.net" modified="2022-07-19T03:29:29.174Z" agent="5.0 (Macintosh; Intel Mac OS X 10_15_7) AppleWebKit/537.36 (KHTML, like Gecko) Chrome/103.0.0.0 Safari/537.36" etag="NSG5poXvWy8Nl1d3Wv7t" version="20.1.1" type="github">
  <diagram id="EJickibMVkhaN0cfWceA" name="workflow">
    <mxGraphModel dx="834" dy="771" grid="1" gridSize="10" guides="1" tooltips="1" connect="1" arrows="1" fold="1" page="1" pageScale="1" pageWidth="827" pageHeight="1169" math="0" shadow="0">
      <root>
        <mxCell id="0" />
        <mxCell id="1" parent="0" />
        <mxCell id="owuBZluM5b2CT8ojLVk_-26" style="edgeStyle=orthogonalEdgeStyle;rounded=0;orthogonalLoop=1;jettySize=auto;html=1;exitX=0.5;exitY=1;exitDx=0;exitDy=0;entryX=0.5;entryY=0;entryDx=0;entryDy=0;strokeColor=#006658;fontColor=#5C5C5C;sketch=1;curved=1;" edge="1" parent="1" source="owuBZluM5b2CT8ojLVk_-2" target="owuBZluM5b2CT8ojLVk_-25">
          <mxGeometry relative="1" as="geometry" />
        </mxCell>
        <mxCell id="owuBZluM5b2CT8ojLVk_-2" value="&lt;span style=&quot;font-family: Raleway; font-size: 18px; text-align: start; background-color: rgb(255, 255, 255);&quot;&gt;team leader approve&lt;/span&gt;" style="rounded=0;whiteSpace=wrap;html=1;fillColor=#21C0A5;strokeColor=#006658;fontColor=#5C5C5C;sketch=1;" vertex="1" parent="1">
          <mxGeometry x="105" y="270" width="120" height="60" as="geometry" />
        </mxCell>
        <mxCell id="owuBZluM5b2CT8ojLVk_-32" style="edgeStyle=orthogonalEdgeStyle;rounded=0;orthogonalLoop=1;jettySize=auto;html=1;exitX=0.5;exitY=1;exitDx=0;exitDy=0;strokeColor=#006658;fontColor=#5C5C5C;sketch=1;curved=1;" edge="1" parent="1" source="owuBZluM5b2CT8ojLVk_-5" target="owuBZluM5b2CT8ojLVk_-31">
          <mxGeometry relative="1" as="geometry" />
        </mxCell>
        <mxCell id="owuBZluM5b2CT8ojLVk_-43" value="approved" style="edgeLabel;html=1;align=center;verticalAlign=middle;resizable=0;points=[];fontColor=#5C5C5C;" vertex="1" connectable="0" parent="owuBZluM5b2CT8ojLVk_-32">
          <mxGeometry x="0.075" relative="1" as="geometry">
            <mxPoint as="offset" />
          </mxGeometry>
        </mxCell>
        <mxCell id="owuBZluM5b2CT8ojLVk_-5" value="&lt;span style=&quot;font-family: Raleway; font-size: 18px; text-align: start; background-color: rgb(255, 255, 255);&quot;&gt;Department Manager approve&lt;/span&gt;" style="rounded=0;whiteSpace=wrap;html=1;fillColor=#21C0A5;strokeColor=#006658;fontColor=#5C5C5C;sketch=1;" vertex="1" parent="1">
          <mxGeometry x="127.5" y="470" width="125" height="70" as="geometry" />
        </mxCell>
        <mxCell id="owuBZluM5b2CT8ojLVk_-16" style="edgeStyle=orthogonalEdgeStyle;rounded=0;orthogonalLoop=1;jettySize=auto;html=1;exitX=0.5;exitY=1;exitDx=0;exitDy=0;entryX=0.5;entryY=0;entryDx=0;entryDy=0;strokeColor=#006658;fontColor=#5C5C5C;sketch=1;curved=1;" edge="1" parent="1" source="owuBZluM5b2CT8ojLVk_-13" target="owuBZluM5b2CT8ojLVk_-2">
          <mxGeometry relative="1" as="geometry" />
        </mxCell>
        <mxCell id="owuBZluM5b2CT8ojLVk_-22" value="submmited" style="edgeLabel;html=1;align=center;verticalAlign=middle;resizable=0;points=[];fontColor=#5C5C5C;sketch=1;" vertex="1" connectable="0" parent="owuBZluM5b2CT8ojLVk_-16">
          <mxGeometry x="-0.0286" y="2" relative="1" as="geometry">
            <mxPoint as="offset" />
          </mxGeometry>
        </mxCell>
        <mxCell id="owuBZluM5b2CT8ojLVk_-13" value="&lt;div style=&quot;text-align: start;&quot;&gt;&lt;font face=&quot;Raleway&quot;&gt;&lt;span style=&quot;font-size: 18px; background-color: rgb(255, 255, 255);&quot;&gt;employee send leave reqest&lt;/span&gt;&lt;/font&gt;&lt;/div&gt;" style="rounded=0;whiteSpace=wrap;html=1;fillColor=#21C0A5;strokeColor=#006658;fontColor=#5C5C5C;sketch=1;" vertex="1" parent="1">
          <mxGeometry x="85" y="140" width="160" height="50" as="geometry" />
        </mxCell>
        <mxCell id="owuBZluM5b2CT8ojLVk_-18" value="End" style="ellipse;whiteSpace=wrap;html=1;aspect=fixed;fillColor=#21C0A5;strokeColor=#006658;fontColor=#5C5C5C;sketch=1;" vertex="1" parent="1">
          <mxGeometry x="180" y="660" width="40" height="40" as="geometry" />
        </mxCell>
        <mxCell id="owuBZluM5b2CT8ojLVk_-38" style="edgeStyle=orthogonalEdgeStyle;rounded=0;orthogonalLoop=1;jettySize=auto;html=1;exitX=1;exitY=0.5;exitDx=0;exitDy=0;entryX=0.5;entryY=0;entryDx=0;entryDy=0;strokeColor=#006658;fontColor=#5C5C5C;sketch=1;curved=1;" edge="1" parent="1" source="owuBZluM5b2CT8ojLVk_-23" target="owuBZluM5b2CT8ojLVk_-13">
          <mxGeometry relative="1" as="geometry" />
        </mxCell>
        <mxCell id="owuBZluM5b2CT8ojLVk_-23" value="Start" style="ellipse;whiteSpace=wrap;html=1;aspect=fixed;fillColor=#21C0A5;strokeColor=#006658;fontColor=#5C5C5C;sketch=1;" vertex="1" parent="1">
          <mxGeometry x="145" y="40" width="40" height="40" as="geometry" />
        </mxCell>
        <mxCell id="owuBZluM5b2CT8ojLVk_-27" style="edgeStyle=orthogonalEdgeStyle;rounded=0;orthogonalLoop=1;jettySize=auto;html=1;entryX=1;entryY=0.25;entryDx=0;entryDy=0;strokeColor=#006658;fontColor=#5C5C5C;sketch=1;curved=1;exitX=1;exitY=0.5;exitDx=0;exitDy=0;" edge="1" parent="1" source="owuBZluM5b2CT8ojLVk_-25" target="owuBZluM5b2CT8ojLVk_-13">
          <mxGeometry relative="1" as="geometry">
            <Array as="points">
              <mxPoint x="280" y="395" />
              <mxPoint x="280" y="153" />
            </Array>
          </mxGeometry>
        </mxCell>
        <mxCell id="owuBZluM5b2CT8ojLVk_-30" value="rejectd" style="edgeLabel;html=1;align=center;verticalAlign=middle;resizable=0;points=[];fontColor=#5C5C5C;sketch=1;" vertex="1" connectable="0" parent="owuBZluM5b2CT8ojLVk_-27">
          <mxGeometry x="-0.3907" y="-2" relative="1" as="geometry">
            <mxPoint x="-2" y="-59" as="offset" />
          </mxGeometry>
        </mxCell>
        <mxCell id="owuBZluM5b2CT8ojLVk_-28" style="edgeStyle=orthogonalEdgeStyle;rounded=0;orthogonalLoop=1;jettySize=auto;html=1;exitX=0.5;exitY=1;exitDx=0;exitDy=0;entryX=0.5;entryY=0;entryDx=0;entryDy=0;strokeColor=#006658;fontColor=#5C5C5C;sketch=1;curved=1;" edge="1" parent="1" source="owuBZluM5b2CT8ojLVk_-25" target="owuBZluM5b2CT8ojLVk_-5">
          <mxGeometry relative="1" as="geometry">
            <Array as="points" />
          </mxGeometry>
        </mxCell>
        <mxCell id="owuBZluM5b2CT8ojLVk_-44" value="escalated" style="edgeLabel;html=1;align=center;verticalAlign=middle;resizable=0;points=[];fontColor=#5C5C5C;" vertex="1" connectable="0" parent="owuBZluM5b2CT8ojLVk_-28">
          <mxGeometry x="-0.26" y="2" relative="1" as="geometry">
            <mxPoint as="offset" />
          </mxGeometry>
        </mxCell>
        <mxCell id="owuBZluM5b2CT8ojLVk_-25" value="" style="rhombus;whiteSpace=wrap;html=1;fillColor=#21C0A5;strokeColor=#006658;fontColor=#5C5C5C;sketch=1;" vertex="1" parent="1">
          <mxGeometry x="155" y="370" width="70" height="50" as="geometry" />
        </mxCell>
        <mxCell id="owuBZluM5b2CT8ojLVk_-40" style="edgeStyle=orthogonalEdgeStyle;rounded=0;orthogonalLoop=1;jettySize=auto;html=1;exitX=0.5;exitY=1;exitDx=0;exitDy=0;strokeColor=#006658;fontColor=#5C5C5C;sketch=1;curved=1;" edge="1" parent="1" source="owuBZluM5b2CT8ojLVk_-31" target="owuBZluM5b2CT8ojLVk_-18">
          <mxGeometry relative="1" as="geometry" />
        </mxCell>
        <mxCell id="owuBZluM5b2CT8ojLVk_-41" style="edgeStyle=orthogonalEdgeStyle;curved=1;rounded=1;sketch=1;orthogonalLoop=1;jettySize=auto;html=1;exitX=0;exitY=0.5;exitDx=0;exitDy=0;entryX=0;entryY=0.5;entryDx=0;entryDy=0;fontColor=#5C5C5C;strokeColor=#006658;fillColor=#21C0A5;" edge="1" parent="1" source="owuBZluM5b2CT8ojLVk_-31" target="owuBZluM5b2CT8ojLVk_-2">
          <mxGeometry relative="1" as="geometry">
            <Array as="points">
              <mxPoint x="90" y="605" />
              <mxPoint x="90" y="580" />
              <mxPoint x="70" y="580" />
              <mxPoint x="70" y="300" />
            </Array>
          </mxGeometry>
        </mxCell>
        <mxCell id="owuBZluM5b2CT8ojLVk_-42" value="rejectd" style="edgeLabel;html=1;align=center;verticalAlign=middle;resizable=0;points=[];fontColor=#5C5C5C;" vertex="1" connectable="0" parent="owuBZluM5b2CT8ojLVk_-41">
          <mxGeometry x="-0.2165" y="-2" relative="1" as="geometry">
            <mxPoint y="-74" as="offset" />
          </mxGeometry>
        </mxCell>
        <mxCell id="owuBZluM5b2CT8ojLVk_-31" value="" style="rhombus;whiteSpace=wrap;html=1;fillColor=#21C0A5;strokeColor=#006658;fontColor=#5C5C5C;sketch=1;" vertex="1" parent="1">
          <mxGeometry x="155" y="580" width="70" height="50" as="geometry" />
        </mxCell>
      </root>
    </mxGraphModel>
  </diagram>
</mxfile>
